Coordinates
nRows=9
nColumns=38

# SIMM Motion File Header:
name Coordinates
datacolumns 38
datarows 9
otherdata 1
range 4.23400000000000000000 4.24200000000000000000

Units are S.I. units (second, meters, Newtons, ...)
Angles are in degrees.

endheader
time	pelvis_tilt	pelvis_list	pelvis_rotation	pelvis_tx	pelvis_ty	pelvis_tz	hip_flexion_r	hip_adduction_r	hip_rotation_r	knee_angle_r	ankle_angle_r	subtalar_angle_r	mtp_angle_r	hip_flexion_l	hip_adduction_l	hip_rotation_l	knee_angle_l	ankle_angle_l	subtalar_angle_l	mtp_angle_l	lumbar_extension	lumbar_bending	lumbar_rotation	arm_flex_r	arm_add_r	arm_rot_r	elbow_flex_r	pro_sup_r	wrist_flex_r	wrist_dev_r	arm_flex_l	arm_add_l	arm_rot_l	elbow_flex_l	pro_sup_l	wrist_flex_l	wrist_dev_l
      4.23400000000000000000	     -2.65918099893868080000	     -5.14096870986152950000	     -0.09140429454431801800	      0.95916994564772096000	      0.94968049326644322000	     -0.30320209007448728000	     11.28133490041438900000	      7.10285310320664290000	     -8.82730110243794460000	    -37.21970992088248000000	     29.46398769343408500000	      0.00000000000005239014	     -0.00000000000000584141	     31.14640719527016800000	     -2.73417890264446850000	      3.26510205959508900000	    -84.81618105735445600000	      0.66010090002104049000	     -0.00000000000000045629	      0.00000000000001134330	    -12.04902110481557500000	      6.19253759887731990000	      8.24096981973243280000	    -15.22886120838087000000	    -23.70704455741400100000	     -0.20612196117682699000	    101.18344261893924000000	     86.82014969659753900000	     -0.00000000000000381105	      0.00000000000001705918	    -20.37444352564115100000	    -22.79313129053933600000	      1.58486818545233830000	    104.47336021379179000000	    120.90416332896072000000	     -0.00000000000000422799	     -0.00000000000000286822
      4.23499999999999940000	     -2.67699942500199880000	     -5.10135883179859740000	     -0.11898731593701053000	      0.95910345989693291000	      0.95004620303555154000	     -0.30318624336516437000	     11.05844637555012600000	      7.07611189298210070000	     -8.78830656347230210000	    -36.99704101589024000000	     29.40059156378620400000	      0.00000000000005275831	     -0.00000000000000566474	     31.31710117531514100000	     -2.69222105525927310000	      3.21925795014958990000	    -84.63827074183338100000	      0.72734895143747214000	     -0.00000000000000042960	      0.00000000000001140578	    -12.04149814471745800000	      6.13746073200894400000	      8.35703630403136980000	    -15.12731582959448900000	    -23.76019639030017700000	     -0.21345953496749334000	    101.32135197541761000000	     86.73432019075677600000	     -0.00000000000000387082	      0.00000000000001721330	    -20.48386419334677200000	    -22.81006246890583400000	      1.60109430583041190000	    104.46312672438988000000	    120.95536243308793000000	     -0.00000000000000425951	     -0.00000000000000289241
      4.23599999999999980000	     -2.69502042016771660000	     -5.06019583371972460000	     -0.14654532322145403000	      0.95903989540895007000	      0.95041670817422141000	     -0.30317128735419008000	     10.83515904656930900000	      7.04755222116046020000	     -8.74923169657798280000	    -36.77294613850443700000	     29.33384498833615000000	      0.00000000000005311714	     -0.00000000000000545031	     31.48553541465317500000	     -2.64869196320805460000	      3.17276968766111840000	    -84.45466470914871600000	      0.79195340421814442000	     -0.00000000000000040207	      0.00000000000001146709	    -12.03333135033748900000	      6.08049276276692210000	      8.47217648895385800000	    -15.02701331242819500000	    -23.81319702806142000000	     -0.22170630757719523000	    101.45984253516049000000	     86.64912075371660200000	     -0.00000000000000393056	      0.00000000000001736766	    -20.59395419472640800000	    -22.82780796614635200000	      1.61888817131059760000	    104.45486450140885000000	    121.00030949542129000000	     -0.00000000000000429036	     -0.00000000000000291131
      4.23700000000000010000	     -2.71321054983216660000	     -5.01745280839666030000	     -0.17405596723038400000	      0.95897919025053679000	      0.95079199343698051000	     -0.30315723091889185000	     10.61150820360998100000	      7.01713193030153450000	     -8.71009965508720190000	    -36.54754023150887600000	     29.26371883080946300000	      0.00000000000005348778	     -0.00000000000000523949	     31.65165352490355500000	     -2.60355017735081520000	      3.12567042909960470000	    -84.26535092892869700000	      0.85392814567677122000	     -0.00000000000000037394	      0.00000000000001152334	    -12.02456852172938500000	      6.02160147982644660000	      8.58636211356737530000	    -14.92792833475906600000	    -23.86600397624667000000	     -0.23087322746114972000	    101.59880955881414000000	     86.56468851284689900000	     -0.00000000000000399023	      0.00000000000001752217	    -20.70464281027303200000	    -22.84636186772242200000	      1.63817201495525630000	    104.44853714145589000000	    121.03869083674698000000	     -0.00000000000000432147	     -0.00000000000000293696
      4.23799999999999950000	     -2.73153852403470760000	     -4.97310300869442210000	     -0.20149890423642589000	      0.95892128219437156000	      0.95117204149664636000	     -0.30314407774311597000	     10.38753098308153300000	      6.98480962114370920000	     -8.67093373636633840000	    -36.32093717688388800000	     29.19018538976796500000	      0.00000000000005385385	     -0.00000000000000500454	     31.81540142159775900000	     -2.55675652642359720000	      3.07798993268300690000	    -84.07031632733732400000	      0.91329452223165009000	     -0.00000000000000034473	      0.00000000000001158133	    -12.01525540362452400000	      5.96075433226853680000	      8.69956694699060050000	    -14.83003587511318400000	    -23.91857474814058200000	     -0.24096867951911119000	    101.73815200895369000000	     86.48114705358938200000	     -0.00000000000000404980	      0.00000000000001767702	    -20.81586028925388000000	    -22.86571773025335100000	      1.65886148284519370000	    104.44410766395883000000	    121.07021010556981000000	     -0.00000000000000435245	     -0.00000000000000296268
      4.23899999999999990000	     -2.74997553218987530000	     -4.92712009484324560000	     -0.22885585257701885000	      0.95886610908745684000	      0.95155683233312005000	     -0.30313182653895798000	     10.16326660893375200000	      6.95054487648208850000	     -8.63175749441505320000	    -36.09324966273197100000	     29.11321838946094700000	      0.00000000000005420702	     -0.00000000000000474744	     31.97672772972126500000	     -2.50827440972663500000	      3.02975455307941120000	    -83.86954695030500800000	      0.97008117824995543000	     -0.00000000000000031368	      0.00000000000001164094	    -12.00543521625390200000	      5.89791878583405800000	      8.81176684864674440000	    -14.73331136980655900000	    -23.97086708125275900000	     -0.25199843856802118000	    101.87777277900418000000	     86.39860616019778700000	     -0.00000000000000410944	      0.00000000000001783232	    -20.92753809922691800000	    -22.88586848271413400000	      1.68086624415605870000	    104.44153847495687000000	    121.09459114020387000000	     -0.00000000000000438385	     -0.00000000000000298984
      4.24000000000000020000	     -2.76849557802880140000	     -4.87947838095845030000	     -0.25611064916811360000	      0.95881360921047853000	      0.95194634261015931000	     -0.30312047127580499000	      9.93875663379277440000	      6.91429848629737620000	     -8.59259485321888410000	    -35.86458905238757900000	     29.03279300661436900000	      0.00000000000005454348	     -0.00000000000000445822	     32.13558418908362300000	     -2.45807009060422650000	      2.98098723811513370000	    -83.66302812749128700000	      1.02432389489703950000	     -0.00000000000000028371	      0.00000000000001169912	    -11.99514818672735200000	      5.83306268079457710000	      8.92293982879679780000	    -14.63773086880926400000	    -24.02283915492526500000	     -0.26396562276625402000	    102.01757892067008000000	     86.31716155651470500000	     -0.00000000000000416896	      0.00000000000001798673	    -21.03960917594209300000	    -22.90680632634219900000	      1.70409060143899600000	    104.44079133172919000000	    121.11158083086099000000	     -0.00000000000000441571	     -0.00000000000000301462
      4.24099999999999970000	     -2.78707580615193870000	     -4.83015308155694090000	     -0.28324929873542593000	      0.95876372162566637000	      0.95234054504797638000	     -0.30311000142531591000	      9.71404517168897640000	      6.87603267423987760000	     -8.55347022273516800000	    -35.63506525531074200000	     28.94888585435068200000	      0.00000000000005488115	     -0.00000000000000418181	     32.29192605119161600000	     -2.40611298529327300000	      2.93170753700658260000	    -83.45074463864430900000	      1.07606542378031240000	     -0.00000000000000025480	      0.00000000000001175997	    -11.98443109132364800000	      5.76615459239657470000	      9.03306610411016920000	    -14.54327119015686900000	    -24.07444980666500800000	     -0.27687065139874051000	    102.15748186416597000000	     86.23689467003649200000	     -0.00000000000000422788	      0.00000000000001814006	    -21.15200816883820100000	    -22.92852263484289600000	      1.72843410511680460000	    104.44182730799500000000	    121.12095193440649000000	     -0.00000000000000444708	     -0.00000000000000303842
      4.24200000000000000000	     -2.80569676041538600000	     -4.77912056235307680000	     -0.31025996433599279000	      0.95871638649628421000	      0.95273940788520939000	     -0.30310040227778551000	      9.48917906044691150000	      6.83571133083163400000	     -8.51440862598816220000	    -35.40478659322525300000	     28.86147493929704000000	      0.00000000000005521897	     -0.00000000000000389098	     32.44571240942639200000	     -2.35237590838058350000	      2.88193169010019810000	    -83.23268089554619600000	      1.12535527900419760000	     -0.00000000000000022533	      0.00000000000001182411	    -11.97331688117698300000	      5.69716419895656760000	      9.14212811021247520000	    -14.44991007123924700000	    -24.12565873020383500000	     -0.29071123794993120000	    102.29739759204354000000	     86.15787258235305000000	     -0.00000000000000428672	      0.00000000000001829356	    -21.26467164793395200000	    -22.95100786888843900000	      1.75379219954367270000	    104.44460675996002000000	    121.12250551002435000000	     -0.00000000000000447825	     -0.00000000000000306245
